/* XPM */
static char *_111f529e17f4dae8e6eb42112052dbfXWXs1Gdbvp6kZuPh[] = {
/* columns rows colors chars-per-pixel */
"64 64 170 2 ",
"   c None",
".  c #3F0F33",
"X  c #3F1034",
"o  c #400F33",
"O  c #421135",
"+  c #461539",
"@  c #4A1639",
"#  c #4C1A3A",
"$  c #481437",
"%  c #50173D",
"&  c #531C3D",
"*  c #55223E",
"=  c #5A273F",
"-  c #561C40",
";  c #5B1D42",
":  c #601F46",
">  c #592642",
",  c #5D2A42",
"<  c #572946",
"1  c #612045",
"2  c #652149",
"3  c #6C244C",
"4  c #6D2A4D",
"5  c #612C48",
"6  c #752A4E",
"7  c #71264F",
"8  c #653144",
"9  c #6A3546",
"0  c #6D3847",
"q  c #6C3B4D",
"w  c #65344B",
"e  c #723D49",
"r  c #662F50",
"t  c #772953",
"y  c #7B2B53",
"u  c #673D5B",
"i  c #7B454D",
"p  c #7B454D",
"a  c #7B4A59",
"s  c #6F4360",
"d  c #7B546E",
"f  c #832F59",
"g  c #802F54",
"h  c #8B325D",
"j  c #873159",
"k  c #90375C",
"l  c #93395D",
"z  c #8F3461",
"x  c #923562",
"c  c #9B3B63",
"v  c #973866",
"b  c #A13F64",
"n  c #A33D6C",
"m  c #844D51",
"M  c #804F5B",
"N  c #8C5454",
"B  c #86545F",
"V  c #925957",
"C  c #945C58",
"Z  c #9C625B",
"A  c #A2675E",
"S  c #9A4F6F",
"D  c #825E76",
"F  c #A44166",
"G  c #AB446B",
"H  c #B54A6F",
"J  c #AC4271",
"K  c #B44576",
"L  c #BD4E73",
"P  c #BC497A",
"I  c #9B6A6D",
"U  c #946368",
"Y  c #87677E",
"T  c #A96E61",
"R  c #AD7262",
"E  c #B57866",
"W  c #B87C67",
"Q  c #B57966",
"!  c #AB7A76",
"~  c #C34C7E",
"^  c #C45176",
"/  c #CB547B",
"(  c #C75379",
")  c #D0577C",
"_  c #D5597F",
"`  c #B5857D",
"'  c #C4866C",
"]  c #CB8C6F",
"[  c #CE9071",
"{  c #DD9C77",
"}  c #DD9C78",
"|  c #E09F79",
" . c #E4A37B",
".. c #E8A67C",
"X. c #EDAB7E",
"o. c #956E85",
"O. c #96778C",
"+. c #AE6B88",
"@. c #CA4F82",
"#. c #CE5184",
"$. c #D45486",
"%. c #DC5D83",
"&. c #DD5A89",
"*. c #E25D8B",
"=. c #E15F87",
"-. c #CC698A",
";. c #E66287",
":. c #E7618B",
">. c #EC638C",
",. c #F1668E",
"<. c #F4698E",
"1. c #F36790",
"2. c #F66A90",
"3. c #FF6E94",
"4. c #FF7196",
"5. c #FF7599",
"6. c #FE7A9D",
"7. c #FF7EA0",
"8. c #BB8981",
"9. c #A38C9D",
"0. c #B39AAA",
"q. c #AB97A6",
"w. c #B4A1AF",
"e. c #B7A6B3",
"r. c #C79688",
"t. c #D1A08E",
"y. c #DFAD97",
"u. c #F0B085",
"i. c #F4B88E",
"p. c #EBBA9E",
"a. c #E3B29A",
"s. c #F6BB93",
"d. c #F2BE9F",
"f. c #FF84A4",
"g. c #FE88A7",
"h. c #FF8AA9",
"j. c #FF95B1",
"k. c #FF9AB5",
"l. c #FF9FB9",
"z. c #E588A4",
"x. c #C1AFBB",
"c. c #C5B0BC",
"v. c #EEBCA1",
"b. c #F1BFA2",
"n. c #FFA5BC",
"m. c #FFA9BF",
"M. c #F9C29D",
"N. c #F6C5A6",
"B. c #FAC6A4",
"V. c #FDC9A6",
"C. c #FFCDAB",
"Z. c #F9C7A8",
"A. c #C4B5C0",
"S. c #FFABC1",
"D. c #FFB3C7",
"F. c #FFB6C9",
"G. c #FFBDCF",
"H. c #D3C8D1",
"J. c #FFCDDA",
"K. c #FFC9D7",
"L. c #FFD0DD",
"P. c #E4DDE2",
"I. c #FFDBE4",
"U. c #FFE4EB",
"Y. c #FBE9EE",
"T. c #FFEEF2",
"R. c #FDF6F8",
"E. c #FFFEFE",
"W. c #FFFBFC",
"Q. c #FFF2F6",
/* pixels */
"                                                                                                                                ",
"                                                                                                                                ",
"                                                                                                                                ",
"                                                                                                                                ",
"                                                                                                                                ",
"                                                                                                                                ",
"                                                                                                                                ",
"                                                          . O O . . . . . . . $ O .                                             ",
"                                                  o O . O ; g b G L ^ / L G c y : $ . O .                                       ",
"                                            o O . ; c _ 2.3.3.3.3.3.3.3.3.3.3.2.*.#.K f & . O                                   ",
"                                        O . - F ;.3.3.3.3.3.3.3.3.3.3.3.3.3.3.3.3.1.$.#.#.J 2 . $                               ",
"                                    O . 4 ( 3.3.3.3.3.3.3.3.3.3.3.3.3.3.3.3.3.3.3.3.3.*.#.#.#.J - O                             ",
"                                O . 5 -.3.3.3.3.3.3.3.3.3.3.3.3.3.3.3.3.3.3.7.h.3.3.3.3.:.#.#.#.@.t . O                         ",
"                              O + +.4.3.3.3.3.3.3.3.3.k.f.3.3.3.3.3.3.3.3.3.F.W.g.3.3.3.3.>.#.#.#.#.v O O                       ",
"                          o . u z.3.3.3.3.3.3.3.3.3.k.E.n.3.3.3.3.3.3.3.3.3.5.Y.U.4.3.3.3.3.*.#.#.#.#.n $ $                     ",
"                        O o o.g.3.3.3.3.3.3.3.3.3.f.R.I.4.3.3.3.3.3.3.3.3.3.3.h.E.S.3.3.3.3.3.&.#.#.#.#.J O o                   ",
"                      O O 0.g.3.3.3.3.3.3.3.3.3.3.K.T.6.3.3.3.3.3.3.3.3.3.3.3.3.j.f.3.3.3.3.3.3.$.#.#.#.#.x .                   ",
"                    O O c.g.3.3.3.3.3.3.3.3.3.3.3.7.7.3.3.3.3.3.3.3.3.3.3.3.3.3.3.3.3.3.3.3.3.3.2.$.#.#.#.#.3 $                 ",
"                  X O x.j.3.3.3.3.3.3.3.3.3.3.3.3.3.3.3.3.3.3.3.3.3.3.3.3.3.3.3.3.3.3.3.3.3.3.3.3.:.#.#.#.#.P O .               ",
"                  . 0.n.3.3.3.3.3.3.3.3.3.3.3.3.3.3.3.3.3.3.3.3.2.2.2.3.3.3.3.3.3.3.3.3.3.3.3.3.3.3.$.#.#.#.#.y O               ",
"                o Y L.3.3.3.j.n.3.3.3.3.3.3.3.3.3.3.3.3.,.*.$.#.#.#.#.K 2 G 3.3.3.3.3.3.3.3.3.3.3.3.>.#.#.#.#.P O               ",
"              O < Y.6.3.3.3.G.Q.3.3.3.3.3.3.3.3.3.3.:.$.#.#.#.#.#.#.#.P 2 o 3 <.3.3.3.3.3.3.3.3.3.3.3.$.#.#.#.#.3 $             ",
"              O H.n.3.3.3.3.k.E.g.3.3.3.3.3.3.3.>.$.#.#.#.#.K v y 3 3 t x v $ 6 3.3.3.3.3.3.3.3.3.S.k.*.#.#.#.#.v .             ",
"            O D U.4.3.3.3.3.5.E.S.3.3.3.3.3.3.&.#.#.#.~ h & . O # 8 0 , O O 2 . ) 3.3.3.3.3.3.3.6.W.D.,.#.#.#.#.~ O             ",
"            O P.k.3.3.3.3.3.3.D.h.3.3.3.3.3.&.#.#.@.j $ O i R  .X.X.X.X. .A $ O c 3.3.3.3.3.3.3.G.W.6.3.#.#.#.#.#.; o           ",
"          o d T.4.3.3.3.3.3.3.3.3.3.3.3.3.&.#.#.K & O N { X.X.X.X.X.X.X.X.X.R . y 3.3.3.3.3.3.3.W.G.3.3.$.#.#.#.#.y $           ",
"          . A.F.3.3.3.3.3.3.3.3.3.3.3.3./ n #.G $ = [ X.X.X.X.X.X.X.X.X.X.X. .. 6 3.3.3.3.3.3.3.k.5.3.3.$.#.#.#.#.x o           ",
"        . + R.f.3.3.3.3.3.3.3.3.3.3.3.3.2 2 K $ 9  .X.X.X.X.X.X. .Q V e 8 8 0 . c 3.3.3.3.3.3.3.3.3.3.3.$.#.#.#.#.n .           ",
"        O s T.3.3.3.3.3.3.3.3.3.3.3.3.2.O h ; =  .X.X.X.X.X.' e O . O . . . . . >.3.3.3.3.3.3.3.3.3.3.3.$.#.#.#.#.K .           ",
"        O O.K.3.3.3.3.3.3.3.3.3.3.3.3.;.. f . ' X.X.X.X.] 9 . O             . t 3.3.3.3.3.3.3.3.3.3.3.3.$.#.#.#.#.P .           ",
"        X q.m.3.3.3.3.3.3.3.3.3.3.3.3.>.. ; = X.X.X.X.Z O O               . # 2.3.3.3.3.3.3.3.3.3.3.3.3.#.#.#.#.~ ; o           ",
"        . e.j.3.3.3.3.3.3.3.3.3.3.3.3.3.1 @ 0 X.X.X.m o O             . . @ >.3.3.3.3.3.3.3.3.3.3.3.3.1.#.#.v % . O O           ",
"        . w.g.3.3.k.h.3.3.3.3.3.3.3.3.3.( . O } X.V o               . . ; ,.3.3.3.3.3.3.3.3.3.3.3.3.3.>.#.J o i Q 9 .           ",
"        O 9.6.3.3.L.W.l.3.3.3.3.3.3.3.3.3.c . + m O           o O . O c 3.3.3.3.3.3.3.3.3.3.3.3.3.3.3.&.#.y * X.X.9 .           ",
"        # Y 4.3.3.5.J.E.S.3.3.3.3.3.3.3.3.3.H $ . . . . O . . . # l 2.3.3.3.3.3.3.3.3.3.3.3.3.3.3.3.3.#.#.7 8 X.X., .           ",
"        O u 6.3.3.3.3.F.G.3.3.3.3.3.3.3.3.3.3.3.c 3 ; & 1 6 c >.3.3.3.3.3.3.3.3.3.3.3.3.3.3.3.3.3.3.>.#.#.y = X.X.O             ",
"          + 6.3.3.3.3.3.3.3.3.3.3.3.3.3.3.3.3.3.3.3.3.3.3.3.3.3.3.3.3.3.3.5.U.F.3.3.3.3.3.3.3.3.3.3.$.#.#.f & X.] .             ",
"          . -.3.3.3.3.3.3.3.3.3.3.3.3.3.3.3.3.3.3.3.3.3.3.3.3.3.3.3.3.3.3.J.W.h.3.3.3.3.3.3.3.3.3.1.#.#.#.1 9 X.Z O             ",
"          + S 3.3.3.3.3.3.3.3.3.3.3.3.3.3.3.3.3.3.3.3.3.3.3.3.3.3.3.3.3.m.E.n.3.3.3.3.3.3.3.3.3.>.h 3 3 ; o W X., O             ",
"          # r 3.3.3.3.3.3.3.3.3.3.3.3.3.D.K.3.3.3.3.3.3.3.3.3.3.3.3.3.3.k.S.3.3.3.3.3.3.3.3.3.>.- # e 0 i ' X.' .               ",
"            O ;.3.3.3.3.3.3.3.3.3.3.3.3.I.L.3.3.3.3.3.3.3.3.3.3.3.3.3.3.3.3.3.3.3.3.3.3.3.3.3.G + { X.X.X.X.X.0 +               ",
"            O F 3.3.3.3.3.3.3.3.3.3.3.3.R.F.3.3.3.3.3.3.3.3.3.3.3.3.3.3.3.3.3.3.3.3.3.3.3.3.3.h > X.X.X.X.X.W .                 ",
"            O & 3.3.3.3.3.3.3.3.3.3.3.6.E.k.3.3.3.3.3.3.3.3.3.3.3.3.3.3.3.3.3.3.3.3.3.3.3.3.2.h # X.X.X.X. .& O                 ",
"              . L 3.3.3.3.3.3.3.3.3.3.3.k.4.3.3.3.3.3.3.3.3.3.3.3.3.3.3.3.3.3.3.3.3.3.3.3.3.&.z O X.X.X.X.i O                   ",
"              O ; 3.3.3.3.3.3.3.3.3.3.3.3.3.3.3.3.3.3.3.3.3.3.3.3.3.3.3.3.3.3.^ k G ,.3.3.>.#.v . ..X.X.A .                     ",
"                o G 3.3.3.3.3.3.3.3.3.3.3.3.3.3.3.3.3.3.3.3.3.3.3.3.3.3.3.3.l . , + @ l =.#.#.h $ ..X.R O O                     ",
"                o $ %.3.3.3.,.F k L 3.3.3.3.3.3.3.3.3.3.3.3.3.3.3.3.3.3.3._ . ! C.v.I # O t f $ m X.W O $                       ",
"                  O - <.3.%.# O & . 4 ;.3.3.3.3.3.3.3.%.c F %.3.3.3.3.3.3.6 , C.C.C.M. .Z * # N ..A O O                         ",
"                    O % ; $ > p.C.r.* @ H 3.3.3.3.3.H O @ + . 1 F ;.3.3.) . ` C.C.s.X.X.X.X.X...m . O                           ",
"                      . X # a.C.C.C.b.M . y >.3.3.^ O B Z.Z.r.M + O 3 j @ q C.B.u.X.X.X.X.X.[ 8 O                               ",
"                          O > y.C.C.C.C.8.# # F b $ a C.C.C.C.C.N.8.a q U d.i.X.X.X.X.X. .N O +                                 ",
"                            O + ` C.C.C.C.p.M O @ U Z.C.C.C.C.C.C.C.C.V.s.X.X.X.X.X...T & O X                                   ",
"                              O . q t.C.C.C.C.Z.C.C.C.C.C.C.C.C.C.V.s.X.X.X.X.X.{ C # . $                                       ",
"                                  O . 5 ` N.C.C.C.C.C.C.C.C.C.B.i.X.X.X.X.{ R p O O O                                           ",
"                                      O . O q I r.a.N.C.V.s.u.X.| ' T N 8 O . +                                                 ",
"                                            O O . . . + * # # O . . . + O                                                       ",
"                                                        o o O                                                                   ",
"                                                                                                                                ",
"                                                                                                                                ",
"                                                                                                                                ",
"                                                                                                                                ",
"                                                                                                                                ",
"                                                                                                                                ",
"                                                                                                                                "
};
