/* XPM */
static char *cdea6a1dc9b448f88c409f6ebb0a451dTdMCqNoStH8S5VdB[] = {
/* columns rows colors chars-per-pixel */
"64 64 172 2 ",
"   c None",
".  c #010101",
"X  c #0B0505",
"o  c #0B0807",
"O  c #060609",
"+  c #0B0A0C",
"@  c #08070B",
"#  c #150708",
"$  c #130E0C",
"%  c #1B090B",
"&  c #120607",
"*  c #15110E",
"=  c #0E0D12",
"-  c #0F101A",
";  c #141213",
":  c #1A1512",
">  c #1E1915",
",  c #13131C",
"<  c #250A0D",
"1  c #280D0F",
"2  c #2E0F12",
"3  c #320D11",
"4  c #3B0E13",
"5  c #211B17",
"6  c #241E19",
"7  c #341013",
"8  c #27201B",
"9  c #2A231D",
"0  c #1E1C22",
"q  c #1F1F34",
"w  c #221F26",
"e  c #1F2035",
"r  c #232027",
"t  c #2E2720",
"y  c #26232A",
"u  c #2E2928",
"i  c #342B24",
"p  c #382F27",
"a  c #3B3229",
"s  c #22233A",
"d  c #2F2A31",
"f  c #332E35",
"g  c #363036",
"h  c #3C353B",
"j  c #3F383D",
"k  c #411015",
"l  c #45161A",
"z  c #4E1319",
"x  c #4E181D",
"c  c #481217",
"v  c #50131A",
"b  c #551B20",
"n  c #711C25",
"m  c #43382E",
"M  c #40362C",
"N  c #4B3E34",
"B  c #433A37",
"V  c #6D2329",
"C  c #682127",
"Z  c #75252C",
"A  c #4E4136",
"S  c #504337",
"D  c #524539",
"F  c #57483C",
"G  c #5B4C3E",
"H  c #292A45",
"J  c #2A2B48",
"K  c #333557",
"L  c #3B3C64",
"P  c #463E42",
"I  c #3E406A",
"U  c #4B4246",
"Y  c #4E4548",
"T  c #51474A",
"R  c #5A4E4F",
"E  c #584B46",
"W  c #5A4F50",
"Q  c #5C5051",
"!  c #645445",
"~  c #685648",
"^  c #6C5A4A",
"/  c #715E4E",
"(  c #695B5A",
")  c #645757",
"_  c #674B41",
"`  c #73604F",
"'  c #766251",
"]  c #7E6957",
"[  c #7B6655",
"{  c #41436F",
"}  c #434572",
"|  c #464877",
" . c #474979",
".. c #786763",
"X. c #811F2A",
"o. c #8D2D35",
"O. c #A92937",
"+. c #B92D3C",
"@. c #A3343D",
"#. c #C12F3F",
"$. c #AB3640",
"%. c #B43943",
"&. c #BA3B46",
"*. c #BF3C48",
"=. c #C53E4A",
"-. c #CD3242",
";. c #D43445",
":. c #DE3648",
">. c #D83546",
",. c #87715D",
"<. c #806B59",
"1. c #BE605D",
"2. c #8E7662",
"3. c #937B66",
"4. c #977E68",
"5. c #987F69",
"6. c #8C7770",
"7. c #8F7A71",
"8. c #CD414D",
"9. c #D3434F",
"0. c #D64350",
"q. c #DB4552",
"w. c #ED4B59",
"e. c #E44855",
"r. c #F54D5C",
"t. c #FA4F5E",
"y. c #FE505F",
"u. c #FE6169",
"i. c #9D836D",
"p. c #978076",
"a. c #998278",
"s. c #988277",
"d. c #A1866F",
"f. c #A28770",
"g. c #A58A72",
"h. c #AB8E76",
"j. c #AD9077",
"k. c #AF9279",
"l. c #B3957B",
"z. c #B6987E",
"x. c #B8997F",
"c. c #B29685",
"v. c #BB9C81",
"b. c #BB9F8B",
"n. c #BFA18D",
"m. c #C2A185",
"M. c #C6A589",
"N. c #C9A78B",
"B. c #CDAA8D",
"V. c #D0AD8F",
"C. c #C9A993",
"Z. c #D2AF91",
"A. c #D4B193",
"S. c #DDB99C",
"D. c #D8B599",
"F. c #FDA290",
"G. c #E3BE9D",
"H. c #E6C09F",
"J. c #E7C1A0",
"K. c #EBC4A3",
"L. c #EEC7A8",
"P. c #EEC8A7",
"I. c #F1C9A6",
"U. c #F3CBA8",
"Y. c #F7CEAB",
"T. c #F5CCA9",
"R. c #F9CFAC",
"E. c #FAD0AC",
"W. c #FCD2AE",
"Q. c #FDD3AE",
"!. c #FCD2AD",
"~. c #FCD2AE",
/* pixels */
"                                                      . . . . . . . . . .                                                       ",
"                                              . . . . . . * i i i t * . . . . . .                                               ",
"                                          . . . + S 4.B.I.W.W.W.W.W.W.P.B.3.S + . . .                                           ",
"                                      . . . m l.R.W.W.W.W.W.W.W.W.W.W.W.W.W.W.R.j.m . . .                                       ",
"                                  . . . D Z.W.W.W.W.W.W.W.W.W.W.W.W.W.W.W.W.W.W.W.W.A.S . . .                                   ",
"                                . . 9 v.W.W.W.W.W.W.W.W.W.W.W.W.W.W.W.W.W.W.W.W.W.W.W.W.v.9 o                                   ",
"                              . . ^ Y.W.W.W.W.W.W.W.W.W.W.W.W.W.W.W.W.W.W.W.W.W.W.W.W.W.W.~.K.W.                                ",
"                            . X i.W.W.W.W.W.W.W.W.W.W.W.W.W.W.W.W.W.W.W.W.W.W.W.W.W.W.W.W.W.W.W.W.                              ",
"                          . o m.W.W.W.W.W.W.W.W.W.W.W.W.W.W.W.W.W.W.W.W.W.W.W.W.W.W.W.W.W.W.W.W.W.W.                            ",
"                        . X v.W.W.W.W.W.W.W.W.W.G.^ S i.W.W.W.W.W.W.W.~.i.N ! G.W.W.W.W.W.W.W.W.W.W.9 .                         ",
"                      . . j.W.W.W.W.W.W.W.W.W.M.* . . . 3.W.W.W.W.W.W.2.. . . * M.W.W.W.W.W.W.W.W.W.g.. .                       ",
"                    . . ^ W.W.W.W.W.W.W.~.W.i.o . H I . i W.W.W.W.W.W.t . I H . o d.W.W.W.W.W.W.W.W.W.^ . .                     ",
"                    . 9 U.W.W.W.W.W.W.W.K.F . X K  . .+ 5 W.W.W.W.W.W.5 +  . .K X . F K.W.W.W.W.W.W.W.Y.N 8                     ",
"                  . . B.W.W.W.W.W.W.Y.3.$ . , I  . . .+ 5 W.W.W.W.W.W.5 +  . . .I , . $ 3.R.W.W.W.W.W.W.W.W.                    ",
"                  . G W.W.W.W.W.U.2.> . O H |  . .} L O 5 W.W.W.W.W.W.5 O L }  . .| H X . > 2.U.W.W.W.W.W.W.                    ",
"                . X S.W.W.W.W.B.> . X e {  .} H - . . . 8 W.W.W.W.W.W.9 . . . - H }  .{ q X . > B.W.W.W.W.W.W.                  ",
"                . G W.W.W.W.I.: . s }  .{ s O . . a ~ ] m.W.W.W.W.W.W.m.] ~ a . . O s {  .} s . : I.W.W.W.W.W.                  ",
"              . . v.W.W.W.W.i.. , J s , . . ; ,.K.W.W.W.W.W.W.W.W.W.W.W.W.W.W.K.,.; . . , s H , . d.W.W.W.W.W.i.                ",
"              . 5 ~.W.W.W.W.,.. . . . . p 3.U.W.W.W.W.W.W.W.W.W.W.W.W.W.W.W.W.W.W.U.3.i . . . . . ,.W.W.W.W.W.i .               ",
"              . ^ W.W.W.W.W.P.i.4.g.m.K.W.W.W.U.7.U y 0 T W.W.W.W.W.W.T 0 y U 7.U.W.W.W.K.v.g.4.i.P.W.W.W.W.W.! .               ",
"              . g.W.W.W.W.W.W.W.W.W.W.W.W.S.Y O . . . . d W.W.W.W.W.W.d . . . . O T S.W.W.W.W.W.W.W.W.W.W.W.W.g..               ",
"            . . G.W.W.W.W.W.W.W.W.W.J.a.h X . @ P a.S.W.W.W.W.W.W.W.W.W.W.S.s.P @ . X j a.J.W.W.W.W.W.W.W.W.W.G.. .             ",
"            . * W.W.W.W.W.W.6.= = O . . . + ) P.W.W.W.W.W.W.W.W.W.W.W.W.W.W.W.W.K.) + . . . O = = 7.W.W.W.W.W.W.+ .             ",
"            . 9 W.W.W.W.W.W.6.= = ; 0 P p.Y.W.W.W.W.W.W.P.0 ..W.W...0 P.W.W.W.W.W.W.Y.p.P 0 ; = = 7.W.W.W.W.W.W.9 .             ",
"            . m W.W.W.W.W.W.W.W.W.W.W.W.W.W.W.W.W.W.W.W.C.. f W.W.f . C.W.W.W.W.W.W.W.W.W.W.W.W.W.W.W.W.W.W.W.W.m .             ",
"          . . ~ W.W.W.W.W.W.W.W.W.W.W.W.W.W.W.W.W.W.W.W.C.. f W.W.f . C.W.W.W.W.W.W.W.W.W.W.W.W.W.W.W.W.W.W.W.W.~ . .           ",
"          . 5 J.W.W.W.W.W.P.N.M.G.W.W.W.W.W.W.W.W.W.W.W.C.. f W.W.f . C.W.W.W.W.W.W.W.W.W.W.W.K.Z.B.Y.W.W.W.W.W.H.5 .           ",
"        . + A.W.W.W.W.B.N . . . . i h.W.W.W.W.W.W.W.W.W.c.. h W.W.h . c.W.W.W.W.W.W.W.W.W.h.a . . . o A B.W.W.W.W.A.+ .         ",
"      . . g.W.W.W.W.5.. . 3 V Z l . . ! ~.W.W.W.W.W.b.U = . ..W.W.... = U b.W.W.W.W.W.~.! . . l Z Z 3 . . f.W.W.W.W.g.. .       ",
"      . S W.W.W.W.l.. # %.y.y.y.y.0.2 . ' W.W.W.W.c.. . . B ~.W.W.~.j . . . c.W.W.W.W.' . 7 0.y.y.y.y.%.# . v.W.W.W.W.S .       ",
"    . o S.W.W.W.Y.> X 8.y.y.y.y.y.y.w.% . A.W.W.W.f . ( K.W.W.W.W.W.W.K.( . g W.W.W.A.. 1 w.y.y.y.y.y.y.=.. 9 ~.W.W.W.S.X .     ",
"    . ^ W.W.W.W.k.. V y.y.y.y.y.y.y.y.$.. ` W.W.W.y . S.W.W.W.W.W.W.W.W.S.. y W.W.W.] . $.y.y.y.y.y.y.y.y.V . l.W.W.W.W.~ .     ",
"  . . S.W.W.W.W.' . &.y.y.y.y.y.y.y.y.r.. a W.W.W.R . , ( L.W.W.W.W.L.( , . Q W.W.W.a . r.y.y.y.y.y.y.y.y.*.. ' W.W.W.W.D.. .   ",
"  . M W.W.W.W.W.~ . e.y.y.y.y.y.y.y.y.y.# 8 W.W.W.I.f . . w R.W.W.R.w . . g U.W.W.W.t % y.y.y.y.y.y.y.y.y.9.. ! W.W.W.W.W.a .   ",
"  . 2.W.W.W.W.W.H.1.y.y.y.y.y.y.y.y.y.r.. a W.W.W.W.W.D.r . W W.W.R . r D.W.W.W.W.W.a . r.y.y.y.y.y.y.y.y.&.. [ W.W.W.W.W.2..   ",
". . V.W.W.W.W.W.W.F.y.y.y.y.y.y.y.y.y.@.. ` W.W.W.W.W.W.D.@ . X X . + D.W.W.W.W.W.W.] . $.y.y.y.y.y.y.y.y.C . z.W.W.W.W.W.B.. . ",
". X R.W.W.W.W.W.W.R.u.t.y.y.y.y.y.y.w.< . A.W.W.W.W.W.W.W.n.f , , f n.W.W.W.W.W.W.W.A.. 1 w.y.y.y.y.y.y.8.. 6 Y.W.W.W.W.W.Y.. . ",
". 6 W.W.W.W.W.W.W.W._ % &.y.y.y.y.0.3 . [ W.W.W.W.W.W.W.W.W.W.W.W.W.W.W.W.W.W.W.W.W.W.' . 7 q.y.y.y.y.%.& . x.W.W.W.W.W.W.W.6 . ",
". i W.W.W.W.W.W.~.W.g.X . 7 V V l . . ! ~.W.W.W.W.W.W.W.W.W.W.W.W.W.W.W.W.W.W.W.W.W.W.~./ . . l Z C 3 . X i.W.W.W.W.W.W.W.W.i . ",
". a W.W.W.W.W.W.W.W.W.B.A X . . . i j.W.W.W.W.W.W.W.W.W.W.W.W.W.W.W.W.W.W.W.W.W.W.W.W.W.W.l.a . . . X S Z.W.W.W.W.W.W.W.W.W.a . ",
". 9 W.W.W.W.W.W.W.W.W.W.W.I.B.N.K.W.W.W.W.W.W.W.W.W.I.d.^ / i.J.H.i./ ^ f.I.W.W.W.W.W.W.W.W.W.G.m.B.I.W.W.W.W.W.W.W.W.W.W.W.9 . ",
". : W.W.W.W.W.W.W.W.W.W.W.W.W.W.W.W.P.G.W.W.W.W.Y.f.> . . . . X X . . . . > g.Y.W.W.W.W.G.I.W.W.W.W.W.W.W.W.W.W.W.W.W.W.W.W.* . ",
". . J.W.W.W.W.W.W.W.W.W.W.W.W.W.W.W.i . * 9 a 9 o . X Z =.*.o.2 2 o.*.=.Z X . + 9 a 9 * . i W.W.W.W.W.W.W.W.W.W.W.W.W.W.W.J.. . ",
". . z.W.W.W.W.W.W.W.W.W.W.W.W.W.W.W.A . . . . X 3 Z e.y.y.y.y.y.y.y.y.y.y.q.Z 2 o . . . . S W.W.W.W.W.W.W.W.W.W.W.W.W.W.W.l..   ",
"  . / W.W.W.W.W.W.W.W.W.W.W.W.W.W.W.4.. . . 7 @.w.y.y.y.y.y.y.q.q.y.y.y.y.y.y.w.@.7 . . . 5.W.W.W.W.W.W.W.W.W.W.W.W.W.W.W.^ .   ",
"  . : ~.W.W.W.W.W.W.W.W.W.W.W.W.W.W.I.$ . 4 . . . 1 l b x 2 X . . X 2 x b l 1 . . . 3 . * I.W.W.W.W.W.W.W.W.W.W.W.W.W.W.~.: .   ",
"  . . l.W.W.W.W.W.W.W.W.W.W.W.W.W.W.W.4.. c +.n 3 X . . . X < v v < X . . . X 3 n +.4 . i.W.W.W.W.W.W.W.W.W.W.W.W.W.W.W.k.. .   ",
"    . i W.W.W.W.W.W.W.W.W.W.W.W.W.W.W.W.A . z >.:.:.;.-.;.:.:.:.:.:.:.;.-.;.:.:.>.z . S W.W.W.W.W.W.W.W.W.W.W.W.W.W.W.W.a .     ",
"    . . k.W.W.W.W.W.W.W.W.W.W.W.W.W.W.W.Y.A . < O.:.:.:.:.:.:.:.:.:.:.:.:.:.:.O.< . A Y.W.W.W.W.W.W.W.W.W.W.W.W.W.W.W.j.. .     ",
"      . : P.W.W.W.W.W.W.W.W.W.W.W.W.W.W.W.R./ . . 3 X.#.:.:.:.:.:.:.:.:.#.X.3 . . / R.W.W.W.W.W.W.W.W.W.W.W.W.W.W.W.P.: .       ",
"        . E W.W.W.W.W.W.W.W.W.W.W.W.W.W.W.W.W.B.A . . . X 3 k z z k 3 X . . . A B.W.W.W.W.W.W.W.W.W.W.W.W.W.W.W.W.W.G .         ",
"        . . 3.W.W.W.W.W.W.W.W.W.W.W.W.W.W.W.W.W.W.G.4.F 9 X . . . . X 9 F 4.G.W.W.W.W.W.W.W.W.W.W.W.W.W.W.W.W.W.W.2.. .         ",
"          . . j.W.W.W.W.W.W.W.W.W.W.W.W.W.W.W.W.W.W.W.W.W.W.K.G.G.K.W.W.W.W.W.W.W.W.W.W.W.W.W.W.W.W.W.W.W.W.W.W.h.. .           ",
"            . . k.W.W.W.W.W.W.W.W.W.W.W.W.W.W.W.W.W.W.W.W.W.W.W.W.W.W.W.W.W.W.W.W.W.W.W.W.W.W.W.W.W.W.W.W.W.W.h.. .             ",
"              . . 2.W.W.W.W.W.W.W.W.W.W.W.W.W.W.W.W.W.W.W.W.W.W.W.W.W.W.W.W.W.W.W.W.W.W.W.W.W.W.W.W.W.W.W.W.4.. .               ",
"                . . ~ U.W.W.W.W.W.W.W.W.W.W.W.W.W.W.W.W.W.W.W.W.W.W.W.W.W.W.W.W.W.W.W.W.W.W.W.W.W.W.W.W.U.! . .                 ",
"                  . . 8 N.W.W.W.W.W.W.W.W.W.W.W.W.W.W.W.W.W.W.W.W.W.W.W.W.W.W.W.W.W.W.W.W.W.W.W.W.W.W.M.8 . .                   ",
"                    . . . G G.W.W.W.W.W.W.W.W.W.W.W.W.W.W.W.W.W.W.W.W.W.W.W.W.W.W.W.W.W.W.W.W.W.W.K.^ . . .                     ",
"                        . . + ] K.W.W.W.W.W.W.W.W.W.W.W.W.W.W.W.W.W.W.W.W.W.W.W.W.W.W.W.W.W.W.K.] + . .                         ",
"                            . . o ~ N.W.W.W.W.W.W.W.W.W.W.W.W.W.W.W.W.W.W.W.W.W.W.W.W.W.W.N.~ o . .                             ",
"                                . . . 9 <.M.~.W.W.W.W.W.W.W.W.W.W.W.W.W.W.W.W.W.W.~.M.] 9 . . .                                 ",
"                                    . . . . $ N ] k.A.I.W.W.W.W.W.W.W.W.I.A.k.] N $ . . . .                                     ",
"                                          . . . . . . . $ 5 i i i i 5 $ . . . . . . .                                           ",
"                                                    . . . . . . . . . . . .                                                     "
};
